<svg width="218" height="190" viewBox="0 0 218 190" fill="none" xmlns="http://www.w3.org/2000/svg">
<rect x="0.5" y="0.5" width="217" height="189" rx="7.5" fill="white" stroke="#D4D8DB"/>
<path d="M37.9922 146.211H177.09C180.892 146.211 182.235 142.809 180.073 139.68L129.346 65.4438C127.182 62.3174 123.435 62.1717 121.019 65.102L101.514 88.7911C99.0946 91.7267 94.9217 91.9704 92.2404 89.2733L84.1171 81.2109C81.4358 78.5137 77.451 79.0674 75.2625 82.1726L35.0592 139.709C32.8681 142.819 34.1875 146.211 37.9922 146.211Z" stroke="#D4D8DB" stroke-width="2"/>
<path d="M150.738 59.6335C150.738 68.8166 158.181 76.2643 167.369 76.2643C176.555 76.2643 184.003 68.8166 184 59.6335C184 50.4477 176.555 43 167.369 43C158.183 43 150.738 50.4451 150.738 59.6335Z" stroke="#D4D8DB" stroke-width="2"/>
</svg>
