<svg width="12" height="7" viewBox="0 0 12 7" fill="none" xmlns="http://www.w3.org/2000/svg">
<path d="M10.1014 0.432767C10.2575 0.278144 10.4684 0.191406 10.6882 0.191406C10.9079 0.191406 11.1188 0.278144 11.275 0.432767C11.3521 0.508695 11.4133 0.5992 11.4551 0.699013C11.4969 0.798827 11.5184 0.905956 11.5184 1.01417C11.5184 1.12238 11.4969 1.22951 11.4551 1.32932C11.4133 1.42913 11.3521 1.51964 11.275 1.59557L6.58537 6.19157C6.42886 6.34597 6.21784 6.43254 5.99797 6.43254C5.77811 6.43254 5.56709 6.34597 5.41057 6.19157L0.720974 1.59557C0.643875 1.51964 0.582647 1.42913 0.540854 1.32932C0.499061 1.22951 0.477539 1.12238 0.477539 1.01417C0.477539 0.905956 0.499061 0.798827 0.540854 0.699013C0.582647 0.5992 0.643875 0.508695 0.720974 0.432767C0.877136 0.278144 1.08801 0.191406 1.30777 0.191406C1.52753 0.191406 1.73841 0.278144 1.89457 0.432767L5.99977 4.20197L10.1014 0.432767Z" fill="#1C498F"/>
</svg>
