<svg width="16" height="20" viewBox="0 0 16 20" fill="none" xmlns="http://www.w3.org/2000/svg">
<path d="M14.0577 3.07722H10.8846V2.5003C10.8846 1.54596 10.1082 0.769531 9.15385 0.769531H6.84615C5.89181 0.769531 5.11538 1.54596 5.11538 2.5003V3.07722H1.94231C1.14702 3.07722 0.5 3.72424 0.5 4.51953V6.53876C0.5 6.85737 0.758317 7.11569 1.07692 7.11569H1.39221L1.89064 17.5826C1.93466 18.507 2.69404 19.2311 3.61942 19.2311H12.3806C13.306 19.2311 14.0654 18.507 14.1094 17.5826L14.6078 7.11569H14.9231C15.2417 7.11569 15.5 6.85737 15.5 6.53876V4.51953C15.5 3.72424 14.853 3.07722 14.0577 3.07722ZM6.26923 2.5003C6.26923 2.1822 6.52805 1.92338 6.84615 1.92338H9.15385C9.47195 1.92338 9.73077 2.1822 9.73077 2.5003V3.07722H6.26923V2.5003ZM1.65385 4.51953C1.65385 4.36048 1.78326 4.23107 1.94231 4.23107H14.0577C14.2167 4.23107 14.3462 4.36048 14.3462 4.51953V5.96184C14.1684 5.96184 2.39061 5.96184 1.65385 5.96184V4.51953ZM12.9568 17.5277C12.9421 17.8359 12.689 18.0772 12.3806 18.0772H3.61942C3.31095 18.0772 3.05782 17.8359 3.04318 17.5277L2.54736 7.11569H13.4526L12.9568 17.5277Z" fill="#D30F03"/>
<path d="M8.00075 16.9234C8.31936 16.9234 8.57767 16.6651 8.57767 16.3465V8.84645C8.57767 8.52785 8.31936 8.26953 8.00075 8.26953C7.68215 8.26953 7.42383 8.52785 7.42383 8.84645V16.3465C7.42383 16.6651 7.68211 16.9234 8.00075 16.9234Z" fill="#D30F03"/>
<path d="M10.8855 16.9234C11.2041 16.9234 11.4624 16.6651 11.4624 16.3465V8.84645C11.4624 8.52785 11.2041 8.26953 10.8855 8.26953C10.5669 8.26953 10.3086 8.52785 10.3086 8.84645V16.3465C10.3086 16.6651 10.5669 16.9234 10.8855 16.9234Z" fill="#D30F03"/>
<path d="M5.11599 16.9234C5.43459 16.9234 5.69291 16.6651 5.69291 16.3465V8.84645C5.69291 8.52785 5.43459 8.26953 5.11599 8.26953C4.79738 8.26953 4.53906 8.52785 4.53906 8.84645V16.3465C4.53906 16.6651 4.79734 16.9234 5.11599 16.9234Z" fill="#D30F03"/>
</svg>
