<svg id="Capa_1" enable-background="new 0 0 512 512" height="512" viewBox="0 0 512 512" width="512" xmlns="http://www.w3.org/2000/svg"><g><g><g><path d="m256 512c-68.38 0-132.667-26.629-181.02-74.98-48.351-48.353-74.98-112.64-74.98-181.02s26.629-132.667 74.98-181.02c48.353-48.351 112.64-74.98 181.02-74.98s132.667 26.629 181.02 74.98c48.351 48.353 74.98 112.64 74.98 181.02s-26.629 132.667-74.98 181.02c-48.353 48.351-112.64 74.98-181.02 74.98z" fill="#81d9b6"/></g></g><g><path d="m512 256c0-68.38-26.629-132.667-74.98-181.02-48.353-48.351-112.64-74.98-181.02-74.98v512c68.38 0 132.667-26.629 181.02-74.98 48.351-48.353 74.98-112.64 74.98-181.02z" fill="#01ccab"/></g><g><path d="m326.052 343.814h-31.333c-21.78 0-39.5-17.72-39.5-39.5v-31.334c0-21.78 17.72-39.5 39.5-39.5h31.333c21.78 0 39.5 17.72 39.5 39.5v31.333c0 21.781-17.719 39.501-39.5 39.501z" fill="#d1014f"/></g><g><path d="m212.128 445.08c-15.458 2.442-26.116-7.471-28.817-13.594-8.717.511-17.493-1.52-25.186-5.96-7.693-4.442-13.835-11.027-17.756-18.832-8.555-1.768-16.504-5.995-22.786-12.277-6.281-6.281-10.509-14.232-12.277-22.785-7.804-3.921-14.39-10.063-18.832-17.755-4.441-7.693-6.467-16.468-5.961-25.187-6.524-5.808-11.296-13.445-13.595-22.025s-1.985-17.58.761-25.871c-4.798-7.298-7.431-15.91-7.431-24.792s2.632-17.495 7.431-24.792c-2.746-8.292-3.06-17.292-.76-25.872 2.298-8.58 7.07-16.216 13.594-22.024-.506-8.719 1.52-17.493 5.96-25.186 4.442-7.693 11.028-13.835 18.832-17.756 1.768-8.553 5.996-16.504 12.277-22.785s14.232-10.509 22.785-12.277c3.921-7.804 10.063-14.39 17.755-18.832 7.693-4.441 16.475-6.469 25.187-5.961 5.808-6.524 13.445-11.296 22.025-13.595 8.994-2.409 18.449-1.948 27.065 1.175 6.442-2.698 13.806-2.883 20.687-.226 10.883 4.201 17.914 14.434 17.914 26.067v324.125z" fill="#fff7f0"/></g><g><g><path d="m171 302c7.846 0 15.363-6.899 15-15-.364-8.127-6.591-15-15-15-7.846 0-15.363 6.899-15 15 .364 8.127 6.591 15 15 15z" fill="#f2e5dc"/></g></g><g><g><path d="m143.667 230.667c7.846 0 15.363-6.899 15-15-.364-8.127-6.591-15-15-15-7.846 0-15.363 6.899-15 15 .364 8.127 6.59 15 15 15z" fill="#f2e5dc"/></g></g><g><path d="m382.125 288.647h-31.333c-21.78 0-39.5-17.72-39.5-39.5v-31.333c0-21.78 17.72-39.5 39.5-39.5h31.333c21.78 0 39.5 17.72 39.5 39.5v31.333c0 21.78-17.72 39.5-39.5 39.5z" fill="#c95742"/></g><g><path d="m345.594 208.313c-24.882 0-45.125-20.243-45.125-45.125s20.243-45.125 45.125-45.125 45.125 20.243 45.125 45.125-20.243 45.125-45.125 45.125z" fill="#ff864a"/></g><g><path d="m328.728 391.465c-19.27 0-38.54-7.335-53.209-22.005-2.813-2.813-4.394-6.628-4.394-10.606 0-3.979 1.581-7.793 4.394-10.606l85.207-85.206c5.857-5.858 15.355-5.858 21.213 0 29.34 29.34 29.34 77.079 0 106.419-14.671 14.669-33.941 22.004-53.211 22.004z" fill="#fea72b"/></g><path d="m290.603 380.814v-86.776c0-6.464-5.241-11.705-11.705-11.705h-47.015c-6.464 0-11.705 5.241-11.705 11.705v87.198c-13.803 5.217-23.508 18.54-23.508 34.081 0 20.089 16.343 36.432 36.432 36.432 8.552 0 16.563-2.942 22.898-8.062 6.335 5.12 14.346 8.062 22.898 8.062 20.089 0 36.432-16.343 36.432-36.432 0-15.995-10.363-29.617-24.727-34.503z" fill="#f2e5dc"/><path d="m290.603 380.814v-86.776c0-6.464-5.241-11.705-11.705-11.705h-22.898v161.355c6.335 5.12 14.346 8.062 22.898 8.062 20.089 0 36.432-16.343 36.432-36.432 0-15.996-10.363-29.618-24.727-34.504z" fill="#d9cdc5"/><path d="m256 60.25c-41.493 0-75.25 33.757-75.25 75.25 0 18.471 6.939 64.52 18.15 106.706 16.365 61.582 33.976 89.044 57.1 89.044s40.735-27.462 57.1-89.044c11.211-42.186 18.15-88.234 18.15-106.706 0-41.493-33.757-75.25-75.25-75.25z" fill="#a44e3f"/><path d="m313.1 242.206c11.211-42.186 18.15-88.234 18.15-106.706 0-41.493-33.757-75.25-75.25-75.25v271c23.125 0 40.735-27.462 57.1-89.044z" fill="#87363e"/></g></svg>